<svg aria-hidden="true" style="position: absolute; width: 0; height: 0; overflow: hidden;" version="1.1" xmlns="http://www.w3.org/2000/svg" xmlns:xlink="http://www.w3.org/1999/xlink">
<defs>
<symbol id="icon-Productly" viewBox="0 0 165 32">
<path fill="#173a56" style="fill: var(--color1, #173a56)" d="M67.398 7.391c0.995 0.606 1.719 1.432 2.173 2.477v-8.873h5.546v23.202h-5.546v-3.167c-0.454 1.045-1.179 1.871-2.173 2.477s-2.184 0.909-3.568 0.909c-1.492 0-2.827-0.361-4.006-1.082s-2.108-1.761-2.789-3.12-1.022-2.947-1.022-4.766c0-1.839 0.341-3.433 1.022-4.781s1.611-2.383 2.789-3.104 2.514-1.082 4.006-1.082c1.384 0 2.573 0.303 3.568 0.909zM6.59 23.352v-7.469h3.575c1.866 0 3.451-0.296 4.755-0.888s2.288-1.405 2.951-2.439c0.663-1.034 0.995-2.214 0.995-3.539 0-2.128-0.742-3.82-2.226-5.075s-3.642-1.882-6.475-1.882h-9.342v21.292h5.767zM12.498 9.009c0 1.755-1.151 2.633-3.452 2.633h-2.916v-5.323h2.916c2.301 0 3.452 0.897 3.452 2.69zM26.488 9.671v-3.171h-5.5v16.853h5.5v-7.671c0-1.389 0.402-2.376 1.206-2.96s1.935-0.876 3.393-0.876h1.576v-5.527c-1.265 0-2.439 0.302-3.522 0.906s-1.967 1.419-2.653 2.446zM49.255 7.345c1.441 0.685 2.574 1.673 3.399 2.963s1.237 2.799 1.237 4.526c0 1.727-0.412 3.236-1.237 4.526s-1.958 2.278-3.399 2.963c-1.441 0.685-3.074 1.027-4.9 1.027s-3.465-0.342-4.916-1.027c-1.452-0.685-2.59-1.673-3.415-2.963s-1.237-2.799-1.237-4.527c0-1.727 0.412-3.236 1.237-4.526s1.963-2.278 3.415-2.963c1.452-0.685 3.091-1.027 4.916-1.027s3.459 0.342 4.9 1.027zM44.885 10.577c-1.051 0-1.935 0.367-2.653 1.1s-1.077 1.791-1.077 3.174 0.359 2.436 1.077 3.159c0.718 0.723 1.603 1.084 2.653 1.084s1.93-0.361 2.637-1.084c0.708-0.723 1.061-1.776 1.061-3.159s-0.354-2.441-1.061-3.174c-0.708-0.733-1.587-1.1-2.637-1.1zM66.61 10.577c-1.271 0-2.293 0.376-3.067 1.127s-1.161 1.795-1.161 3.131 0.387 2.38 1.161 3.131c0.774 0.752 1.796 1.127 3.067 1.127 1.248 0 2.27-0.386 3.067-1.159s1.196-1.806 1.196-3.1c0-1.315-0.398-2.354-1.196-3.116s-1.82-1.143-3.067-1.143zM98.468 23.171v-16.853h-5.836v8.94c0 1.228-0.339 2.175-1.018 2.839s-1.606 0.997-2.783 0.997c-1.131 0-2.030-0.317-2.698-0.951s-1.001-1.525-1.001-2.673v-9.151h-5.769v9.785c0 2.255 0.639 4.027 1.917 5.316s3.003 1.933 5.175 1.933c1.425 0 2.675-0.292 3.75-0.876s1.883-1.369 2.426-2.356v3.050h5.836zM110.803 6.318c2.346 0 4.31 0.591 5.895 1.772s2.583 2.804 2.996 4.869h-5.895c-0.173-0.715-0.531-1.271-1.074-1.668s-1.227-0.596-2.052-0.596c-0.977 0-1.78 0.352-2.41 1.057-0.63 0.705-0.945 1.732-0.945 3.082s0.315 2.377 0.945 3.082c0.629 0.705 1.433 1.057 2.41 1.057 0.826 0 1.509-0.199 2.052-0.596s0.901-0.953 1.074-1.668h5.895c-0.413 2.065-1.411 3.688-2.996 4.869s-3.55 1.772-5.895 1.772c-1.78 0-3.36-0.342-4.738-1.027s-2.459-1.673-3.241-2.963-1.172-2.799-1.172-4.527c0-1.747 0.385-3.261 1.156-4.541s1.851-2.263 3.241-2.948c1.389-0.685 2.974-1.027 4.755-1.027zM133.492 23.352v-4.503h-1.756c-0.694 0-1.187-0.133-1.479-0.398-0.293-0.266-0.439-0.735-0.439-1.409v-6.372h3.643v-4.412h-3.643v-4.197h-5.561v4.197h-2.439v4.412h2.439v6.28c0 2.288 0.59 3.927 1.772 4.917s2.835 1.486 4.96 1.486h2.503zM141.983 0.995v22.357h-5.307v-22.357h5.307zM154.902 17.054l-4.451-10.605h-6.346l7.774 16.651-4.352 8.899h6.245l11.561-25.551h-6.278l-4.153 10.605z"></path>
</symbol>
<symbol id="icon-Image" viewBox="0 0 42 32">
<path fill="#ffe5d2" style="fill: var(--color2, #ffe5d2)" d="M22.74 30.122c-8.497-0.81-15.53-6.648-18.612-14.090s8.521-13.781 16.878-14.144c8.357-0.363 14.808 6.6 14.808 14.53s-4.577 14.514-13.074 13.704z"></path>
<path fill="#fff" style="fill: var(--color3, #fff)" d="M33.225 22.239c0.007-0.004 0.048 0.050 0.11 0.157s0.139 0.267 0.211 0.474c0.147 0.414 0.239 1.025 0.184 1.691s-0.211 1.251-0.332 1.667c-0.124 0.416-0.215 0.669-0.231 0.665-0.017-0.005 0.044-0.266 0.146-0.687 0.099-0.42 0.24-1.002 0.293-1.655s-0.023-1.246-0.144-1.657c-0.118-0.413-0.256-0.646-0.237-0.656z"></path>
<path fill="#fff" style="fill: var(--color3, #fff)" d="M33.617 18.877c0.008-0.003 0.061 0.087 0.15 0.253s0.213 0.409 0.36 0.712c0.292 0.606 0.685 1.453 0.971 2.437 0.14 0.492 0.236 0.971 0.284 1.41s0.054 0.839 0.029 1.172c-0.024 0.333-0.069 0.601-0.113 0.783s-0.077 0.28-0.085 0.279c-0.024-0.004 0.083-0.406 0.105-1.066 0.028-0.659-0.065-1.574-0.348-2.547s-0.659-1.821-0.929-2.435c-0.136-0.307-0.246-0.555-0.322-0.727-0.074-0.172-0.112-0.269-0.103-0.273z"></path>
<path fill="#fff" style="fill: var(--color3, #fff)" d="M17.518 22.821c0.015 0.015-0.129 0.147-0.316 0.391-0.046 0.061-0.097 0.128-0.144 0.205-0.052 0.074-0.096 0.159-0.146 0.246-0.093 0.178-0.181 0.381-0.248 0.602-0.065 0.221-0.103 0.438-0.123 0.636-0.006 0.099-0.015 0.194-0.013 0.283-0.003 0.089 0.003 0.172 0.008 0.247 0.023 0.302 0.072 0.487 0.051 0.492-0.013 0.004-0.093-0.174-0.14-0.483-0.011-0.077-0.022-0.162-0.024-0.254-0.007-0.092-0.002-0.19 0.001-0.293 0.015-0.206 0.050-0.432 0.118-0.662 0.070-0.229 0.165-0.439 0.267-0.621 0.054-0.089 0.104-0.175 0.161-0.249 0.052-0.077 0.109-0.143 0.161-0.203 0.211-0.238 0.378-0.348 0.386-0.338z"></path>
<path fill="#fff" style="fill: var(--color3, #fff)" d="M17.906 23.857c0.011 0.016-0.073 0.074-0.184 0.184-0.056 0.054-0.115 0.125-0.173 0.207-0.056 0.083-0.109 0.179-0.151 0.284-0.040 0.106-0.064 0.21-0.078 0.306-0.011 0.096-0.013 0.184-0.007 0.258 0.011 0.147 0.038 0.239 0.018 0.246-0.014 0.005-0.075-0.079-0.111-0.235-0.019-0.078-0.027-0.173-0.022-0.278 0.008-0.105 0.030-0.22 0.074-0.336 0.046-0.115 0.108-0.218 0.174-0.305 0.069-0.086 0.141-0.156 0.21-0.207 0.137-0.103 0.243-0.136 0.25-0.124z"></path>
<path fill="#fff" style="fill: var(--color3, #fff)" d="M13.124 13.964c0.007-0.005 0.064 0.048 0.162 0.15 0.050 0.050 0.108 0.114 0.171 0.192s0.138 0.164 0.209 0.267c0.037 0.051 0.075 0.104 0.115 0.16s0.075 0.117 0.115 0.179c0.082 0.123 0.155 0.262 0.234 0.407 0.15 0.294 0.294 0.628 0.409 0.989 0.111 0.363 0.181 0.717 0.223 1.041 0.016 0.163 0.034 0.317 0.036 0.463 0.002 0.073 0.007 0.143 0.006 0.21s-0.003 0.132-0.005 0.194c-0 0.124-0.015 0.235-0.023 0.332s-0.021 0.181-0.034 0.249c-0.024 0.136-0.041 0.21-0.050 0.209-0.023-0.003 0.020-0.304 0.016-0.791-0.001-0.061-0.002-0.125-0.004-0.191s-0.009-0.135-0.013-0.207c-0.006-0.143-0.028-0.294-0.047-0.454-0.048-0.318-0.12-0.665-0.229-1.021-0.112-0.355-0.25-0.684-0.392-0.975-0.075-0.144-0.144-0.282-0.22-0.405-0.037-0.062-0.071-0.124-0.107-0.18s-0.072-0.11-0.106-0.162c-0.276-0.411-0.484-0.642-0.466-0.656z"></path>
<path fill="#fff" style="fill: var(--color3, #fff)" d="M14.547 14.546c0.011-0.009 0.155 0.12 0.338 0.369 0.092 0.124 0.189 0.28 0.284 0.46 0.092 0.181 0.179 0.387 0.249 0.611 0.068 0.224 0.111 0.442 0.137 0.643 0.023 0.201 0.030 0.382 0.022 0.534-0.013 0.304-0.060 0.488-0.074 0.486-0.020-0.002-0.004-0.188-0.014-0.486-0.004-0.149-0.020-0.326-0.048-0.52-0.031-0.194-0.077-0.405-0.142-0.623-0.068-0.217-0.15-0.418-0.233-0.597-0.086-0.178-0.173-0.335-0.254-0.462-0.16-0.255-0.279-0.403-0.263-0.415z"></path>
<path fill="#ff7b5b" style="fill: var(--color4, #ff7b5b)" d="M9.434 24.458l-0.112-0.216-3.116 2.25 1.359 2.081 3.101-2.472-1.233-1.644z"></path>
<path fill="#d7d4d4" style="fill: var(--color5, #d7d4d4)" d="M6.335 26.505l1.215 1.939 0.078-0.032-1.082-1.813-0.211-0.094z"></path>
<path fill="#f5f3f3" style="fill: var(--color6, #f5f3f3)" d="M9.396 24.372l-3.060 2.103c0 0 0.013 0.045 0.089 0.073s0.12 0.021 0.12 0.021l3.217-2.044c0 0-0.185-0.040-0.253-0.087s-0.113-0.067-0.113-0.067z"></path>
<path fill="#ff7b5b" style="fill: var(--color4, #ff7b5b)" d="M9.862 24.501l-3.333 2.082 1.082 1.919 0.174 0.266 3.333-2.307c0 0-0.351-0.49-0.562-0.786s-0.625-0.994-0.647-1.038c-0.023-0.045-0.048-0.135-0.048-0.135z"></path>
<path fill="#775298" style="fill: var(--color7, #775298)" d="M37.368 10.007l0.094-0.181 2.619 1.881-1.143 1.74-2.607-2.066 1.037-1.374z"></path>
<path fill="#d7d4d4" style="fill: var(--color5, #d7d4d4)" d="M40.016 11.766l-1.033 1.616-0.066-0.027 0.92-1.511 0.179-0.078z"></path>
<path fill="#f5f3f3" style="fill: var(--color6, #f5f3f3)" d="M37.411 10.020l2.541 1.794c0 0-0.011 0.038-0.074 0.062s-0.1 0.018-0.1 0.018l-2.671-1.743c0 0 0.154-0.034 0.21-0.074s0.094-0.057 0.094-0.057z"></path>
<path fill="#775298" style="fill: var(--color7, #775298)" d="M37.070 10.085l2.817 1.767-0.915 1.628-0.147 0.225-2.817-1.958c0 0 0.297-0.416 0.475-0.667s0.528-0.843 0.547-0.881c0.019-0.038 0.041-0.115 0.041-0.115z"></path>
<path fill="#ff7b5b" style="fill: var(--color4, #ff7b5b)" d="M5.753 6.659c0 0-0.201 0.128-0.1 0.34s0.54 0.844 1.135 0.823c0.024-0.001-0.749-1.163-0.749-1.163h-0.286z"></path>
<path fill="#775298" style="fill: var(--color7, #775298)" d="M4.848 18.367c0 0-0.736-0.623-0.972-0.511-0.288 0.136-1.935 1.665-1.871 2.385 0.026 0.295 0.389 0.042 1.035-0.592s1.46-0.363 1.46-0.363l0.347-0.919z"></path>
<path fill="#775298" style="fill: var(--color7, #775298)" d="M6.594 19.445l-0.881-0.503c0 0-2.283 2.039-1.926 2.311 0.271 0.206 0.429 0.021 1.070-0.612s1.452-0.269 1.452-0.269l0.285-0.927z"></path>
<path fill="#f3a683" style="fill: var(--color8, #f3a683)" d="M11.988 12.8l0.166 2.198-3.685-0.895 3.519-1.303z"></path>
<path fill="#112129" style="fill: var(--color9, #112129)" d="M8.494 14.158c0 0 3.244 0.191 3.676 0.056 0 0 0.634 5.82-0.494 6.447s-3.66-0.291-3.66-0.291l0.684-1.256 1.474-0.090v-2.243l-0.106 0.022-1.574-2.646z"></path>
<path fill="#22343d" style="fill: var(--color10, #22343d)" d="M4.478 18.111c0 0-0.809 0.313-0.547 1.072 0 0 2.761 2.032 4.105 1.563 0.753-0.263 1.561-2.267 2.127-3.98l1.991-2.552c0 0-0.939 0.044-1.252 0.043-0.599-0.002-2.392-0.099-2.392-0.099s-0.937 4.601-1.271 4.712c-0.334 0.112-2.761-0.759-2.761-0.759z"></path>
<path fill="#ffc6b2" style="fill: var(--color11, #ffc6b2)" d="M9.244 8.364c0 0 1.939-1.7 2.274-2.148s1.053-1.947 1.938-2.573l-0.431-0.85c0 0 0.263-0.134 0.431 0.224 0 0 0.622-1.163 0.766-1.141s-0.287 0.895-0.287 0.895 0.598-0.806 0.766-0.783c0.167 0.022-0.431 0.905-0.431 0.905s0.67-0.727 0.766-0.637c0.096 0.090-0.527 0.637-0.527 0.637s0.67-0.36 0.742-0.241c0.072 0.119-0.67 0.432-0.67 0.432s-0.072 0.515-0.526 0.738c0 0-0.9 2.274-1.714 3.012l-2.614 2.54-0.483-1.010z"></path>
<path fill="#ffc6b2" style="fill: var(--color11, #ffc6b2)" d="M6.955 9.244c0 0-1.829 1.794-2.308 2.103s-2.082 0.965-2.758 1.786l-0.901-0.41c0 0-0.145 0.245 0.234 0.404 0 0-1.245 0.57-1.222 0.704s0.956-0.26 0.956-0.26-0.863 0.551-0.841 0.708c0.022 0.156 0.968-0.394 0.968-0.394s-0.78 0.619-0.685 0.709c0.094 0.090 0.683-0.486 0.683-0.486s-0.389 0.622-0.264 0.69c0.126 0.068 0.466-0.622 0.466-0.622s0.549-0.062 0.791-0.485c0 0 2.294-0.856 3.087-1.609l2.854-1.897-1.061-0.943z"></path>
<path fill="#fff" style="fill: var(--color3, #fff)" d="M7.655 8.531l-0.932 0.851 0.236 0.959c0 0 0.918 2.056 1.057 2.558 0.216 0.78-0.133 1.969-0.133 1.969s1.556-0.121 2.973-0.165c1.416-0.045 1.879-0.47 1.879-0.47s-1.228-3.815-2.076-4.881c-0.848-1.066-1.156-1.4-1.156-1.4l-1.248 0.254-0.6 0.325z"></path>
<path fill="#fff" style="fill: var(--color3, #fff)" d="M10.34 9.244l0.967-0.582c0 0 0.148-0.623-1.018-1.358l-1.367 0.806 1.419 1.133z"></path>
<path fill="#fff" style="fill: var(--color3, #fff)" d="M6.901 9.327c-0.528 0.069-1.492 1.313-1.6 1.31 0 0 0.679 1.030 1.217 1.064 0 0 2.367-2.633 0.383-2.374z"></path>
<path fill="#ffc6b2" style="fill: var(--color11, #ffc6b2)" d="M8.792 8.535c0 0-0.776-0.543-0.75-0.76 0.007-0.055 0.114-0.143 0.142-0.222 0.151-0.423-0.575-1.513-1.021-1.743-0.351-0.181-0.197-0.197-0.935 0.214s-0.318 1.122 0.012 1.49c0.312 0.348 0.669 0.496 0.99 0.521l0.457 0.95 1.105-0.451z"></path>
<path fill="#ffc6b2" style="fill: var(--color11, #ffc6b2)" d="M7.408 9.245c-0.144-0.337 0.129-0.761 0.611-0.947s0.99-0.065 1.134 0.271c0.144 0.337-0.341 0.842-0.611 0.947s-0.99 0.065-1.134-0.271z"></path>
<path fill="#ffc6b2" style="fill: var(--color11, #ffc6b2)" d="M6.229 7.499c0 0-0.253-0.013-0.281 0.139s0.463 0.152 0.645 0.038l-0.365-0.177z"></path>
<path fill="#ff7b5b" style="fill: var(--color4, #ff7b5b)" d="M6.394 7.628c-0.048-0.283-0.37-0.493-0.354-0.769 0.154 0.001 0.254-0.178 0.183-0.331-0.028-0.060-0.075-0.111-0.104-0.171s-0.038-0.137 0.008-0.17c0.022-0.016 0.051-0.019 0.079-0.021 0.229-0.022 0.621 0.042 0.832-0.031 0.201-0.070 0.416-0.205 0.395-0.435-0.018-0.2-0.207-0.362-0.381-0.485-0.099-0.070-0.384-0.254-0.491-0.237-0.164 0.025-0.203 0.23-0.215 0.401-0.114-0.102-0.283-0.086-0.383-0.003s-0.147 0.215-0.19 0.342c-0.043 0.127-0.089 0.259-0.188 0.344-0.092 0.079-0.236 0.138-0.217 0.272 0.023 0.16 0.246 0.217 0.349 0.353-0.025-0.033-0.047 0.18-0.032 0.216 0.044 0.109 0.154 0.181 0.233 0.264 0.169 0.178 0.252 0.356 0.476 0.46z"></path>
<path fill="#fff" style="fill: var(--color3, #fff)" d="M7.745 6.982l-0.569 0.255c0 0 0.683 0.43 0.569-0.255z"></path>
<path fill="#ffb2a0" style="fill: var(--color12, #ffb2a0)" d="M6.973 7.096c0.030 0.056-0.014 0.138-0.098 0.182s-0.176 0.034-0.206-0.022c-0.030-0.056 0.014-0.137 0.098-0.182s0.176-0.034 0.206 0.022z"></path>
<path fill="#ffb2a0" style="fill: var(--color12, #ffb2a0)" d="M7.813 6.579c0.030 0.056-0.014 0.138-0.098 0.182s-0.176 0.034-0.206-0.022c-0.030-0.056 0.014-0.138 0.098-0.182s0.176-0.034 0.206 0.022z"></path>
<path fill="#ff7b5b" style="fill: var(--color4, #ff7b5b)" d="M7.356 6.981c-0.003-0.003 0.008-0.016 0.032-0.033 0.023-0.017 0.064-0.036 0.094-0.067 0.030-0.030 0.041-0.093-0.005-0.102-0.048-0.015-0.102 0.037-0.164 0.086-0.015 0.012-0.030 0.024-0.046 0.036-0.014 0.012-0.044 0.030-0.074 0.027-0.058-0.009-0.083-0.046-0.106-0.071-0.045-0.055-0.073-0.113-0.088-0.162-0.030-0.101-0.017-0.166-0.009-0.165 0.010-0 0.014 0.062 0.052 0.151 0.019 0.044 0.049 0.094 0.091 0.141 0.021 0.024 0.047 0.046 0.065 0.047 0.008 0 0.014-0.002 0.028-0.014s0.030-0.024 0.045-0.036 0.058-0.048 0.094-0.071c0.035-0.022 0.084-0.036 0.129-0.022 0.047 0.012 0.075 0.065 0.067 0.101-0.005 0.037-0.025 0.065-0.047 0.085-0.047 0.037-0.088 0.046-0.115 0.057-0.027 0.010-0.042 0.016-0.045 0.012z"></path>
<path fill="#ffa192" style="fill: var(--color13, #ffa192)" d="M7.24 8.007c0 0 0.377 0.002 0.582-0.12 0 0-0.173 0.205-0.519 0.259l-0.062-0.139z"></path>
<path fill="#22343d" style="fill: var(--color10, #22343d)" d="M7.37 6.493c-0.003 0.019-0.047 0.025-0.095 0.051-0.048 0.024-0.082 0.059-0.095 0.048-0.014-0.009 0.009-0.078 0.073-0.112s0.121-0.005 0.117 0.013z"></path>
<path fill="#22343d" style="fill: var(--color10, #22343d)" d="M6.663 6.915c-0.014-0.010 0.008-0.067 0.060-0.125 0.053-0.059 0.121-0.078 0.129-0.062s-0.034 0.053-0.081 0.105c-0.047 0.051-0.093 0.093-0.108 0.082z"></path>
<path fill="#ff7b5b" style="fill: var(--color4, #ff7b5b)" d="M6.358 6.845c-0.028-0.020-0.049-0.107 0.057-0.224 0.107-0.12 0.226-0.099 0.241-0.065 0.015 0.033-0.024 0.079-0.118 0.184-0.095 0.105-0.149 0.127-0.179 0.105z"></path>
<path fill="#ff7b5b" style="fill: var(--color4, #ff7b5b)" d="M6.987 6.38c-0.016-0.026 0.002-0.1 0.144-0.152 0.144-0.054 0.24 0.006 0.239 0.036-0 0.031-0.055 0.052-0.181 0.099s-0.185 0.045-0.202 0.017z"></path>
<path fill="#775298" style="fill: var(--color7, #775298)" d="M38.206 7.177c0.010 0.009-0.149 0.173-0.478 0.351-0.325 0.178-0.836 0.355-1.423 0.359s-1.102-0.166-1.429-0.34c-0.331-0.174-0.493-0.336-0.483-0.345 0.014-0.016 0.194 0.12 0.526 0.27 0.329 0.15 0.824 0.299 1.385 0.295s1.054-0.159 1.381-0.314c0.329-0.154 0.508-0.293 0.521-0.277z"></path>
<path fill="#775298" style="fill: var(--color7, #775298)" d="M34.65 6.979c-0.009 0.019-0.183-0.050-0.477-0.113-0.146-0.033-0.324-0.058-0.521-0.082-0.198-0.021-0.418-0.038-0.649-0.053s-0.453-0.033-0.655-0.057c-0.201-0.026-0.382-0.056-0.531-0.094-0.299-0.075-0.469-0.163-0.463-0.175 0.008-0.019 0.186 0.039 0.482 0.090 0.148 0.027 0.326 0.048 0.525 0.067 0.199 0.017 0.419 0.032 0.651 0.047s0.454 0.036 0.656 0.064c0.201 0.030 0.382 0.065 0.529 0.11 0.296 0.086 0.46 0.185 0.453 0.197z"></path>
<path fill="#775298" style="fill: var(--color7, #775298)" d="M31.108 3.349c0.557-0.111 1.134-0.015 1.695 0.072s1.145 0.167 1.694 0.025c0.991-0.255 1.744-1.192 2.772-1.184 0.423 0.003 0.822 0.172 1.235 0.262 0.512 0.111 1.046 0.099 1.564 0.179s1.055 0.275 1.348 0.683c0.348 0.485 0.252 1.168-0.113 1.642s-0.949 0.762-1.548 0.925c-0.418 0.114-0.863 0.18-1.224 0.407-0.366 0.229-0.604 0.598-0.945 0.859-0.855 0.654-2.185 0.467-3.068-0.154-0.222-0.156-0.427-0.337-0.677-0.451-1.014-0.465-2.472 0.15-3.345-0.695-0.887-0.858-0.76-2.297 0.613-2.57z"></path>
<path fill="#ffb2a0" style="fill: var(--color12, #ffb2a0)" d="M30.836 20.009c0 0 0.922 1.89 1.030 1.54s0.072-1.191 0.014-1.311c-0.058-0.12-0.435-0.65-0.435-0.65l-0.609 0.421z"></path>
<path fill="#ffc6b2" style="fill: var(--color11, #ffc6b2)" d="M37.56 4.904c0.085 0.101 0.028-0.008 0.125 0.139 0.401-0.013 0.669-0.329 0.669-0.329s0.636 0.016 0.628-0.090c-0.007-0.106-0.609-0.066-0.609-0.066s0.637-0.186 0.602-0.279c-0.035-0.093-0.77 0.204-0.77 0.204s0.742-0.429 0.632-0.498c-0.109-0.069-0.823 0.306-0.823 0.306s0.62-0.475 0.527-0.536c-0.093-0.061-0.953 0.557-0.953 0.557 0.013-0.304-0.222-0.293-0.222-0.293l0.010 0.742c0 0 0.145 0.098 0.184 0.144z"></path>
<path fill="#ffc6b2" style="fill: var(--color11, #ffc6b2)" d="M28.041 1.521c-0.139 0.024-0.031-0.021-0.211 0.030-0.295-0.265-0.256-0.682-0.256-0.682s-0.495-0.393-0.413-0.469c0.083-0.077 0.512 0.337 0.512 0.337s-0.35-0.549-0.256-0.598c0.094-0.049 0.439 0.647 0.439 0.647s-0.254-0.803-0.12-0.786c0.133 0.017 0.405 0.759 0.405 0.759s-0.128-0.76-0.013-0.748c0.115 0.012 0.322 1.035 0.322 1.035 0.211-0.242 0.382-0.085 0.382-0.085l-0.535 0.554c0 0-0.192-0.006-0.256 0.005z"></path>
<path fill="#ffc6b2" style="fill: var(--color11, #ffc6b2)" d="M31.352 4.657c-0.179-0.028-0.613 0.243-0.83 0.684-0.121 0.247-0.205 0.498-0.066 0.899 0.066 0.189 0.203 0.213 0.234 0.297 0.039 0.107-0.090 0.445-0.090 0.445l0.512 0.194c0.033-0.232 0.071-0.465 0.323-0.566 0.094-0.038 0.195-0.062 0.284-0.109 0.24-0.129 0.368-0.411 0.467-0.643 0.074-0.173-0.384-1.132-0.834-1.201z"></path>
<path fill="#ffb2a0" style="fill: var(--color12, #ffb2a0)" d="M30.793 11.18l-0.855-0.319c0 0-2.538 4.38-2.528 5.596s3.486 3.649 3.486 3.649l0.586-0.471c0 0-1.073-1.741-1.647-2.355s0.957-6.098 0.957-6.098z"></path>
<path fill="#ffc6b2" style="fill: var(--color11, #ffc6b2)" d="M34.983 16.097c0 0 1.867-0.809 1.492-0.88s-1.253 0.027-1.374 0.089c-0.121 0.062-0.645 0.448-0.645 0.448l0.527 0.343z"></path>
<path fill="#ffc6b2" style="fill: var(--color11, #ffc6b2)" d="M31.62 11.119l-1.294 0.439c0 0-1.294 5.304-0.8 6.137s1.881 0.282 3.857-0.723l1.655-0.842-0.552-0.343c0 0-1.926 0.352-2.467 0.702 0 0 0.282-0.745 0.659-1.797s0.636-2.126-1.058-3.573z"></path>
<path fill="#ffc6b2" style="fill: var(--color11, #ffc6b2)" d="M29.996 7.469c0-0.358 0.124-0.617 0.508-0.617s0.915 0.125 0.915 0.483c0 0.358-0.303 0.939-0.687 0.939s-0.736-0.448-0.736-0.806z"></path>
<path fill="#ffc6b2" style="fill: var(--color11, #ffc6b2)" d="M30.319 6.857c0 0-1.175-1.195-1.41-2.365s-0.635-3.070-0.635-3.070l-0.447 0.121c0 0-0.212 2.595 0 2.993s1.245 3.044 1.56 3.739l0.932-1.418z"></path>
<path fill="#ffc6b2" style="fill: var(--color11, #ffc6b2)" d="M31.547 7.743c0 0 0.090-0.372 1.575-0.878s4.287-2.146 4.287-2.146l0.28 0.301c0 0-1.522 1.656-2.408 1.946s-2.767 1.436-2.96 1.527c-0.293 0.139-0.289 0.313-0.773-0.751z"></path>
<path fill="#22343d" style="fill: var(--color10, #22343d)" d="M30.285 6.853c0 0-1.194 0.361-1.194 2.056 0 0 0.001 2.321 0.282 2.744 0 0 0.457 0.109 1.028 0 0.598-0.115 1.177-0.526 1.177-0.526l0.939-2.631-0.112-1.233-1.277-0.23c0 0 0.366 1.597-0.959 0.911-0.258-0.133 0.379-1.040 0.379-1.040l-0.263-0.051z"></path>
<path fill="#22343d" style="fill: var(--color10, #22343d)" d="M29.296 8.21l-0.593-1.134c0 0 0.085-0.688 1.173-0.935 0 0 0.11 0.347 0.231 0.479s0.472 0.273 0.472 0.273l-1.282 1.316z"></path>
<path fill="#22343d" style="fill: var(--color10, #22343d)" d="M31.484 8.663l1.87-0.36c0 0 0.325-0.633-0.446-1.385 0 0-1.459 0.083-1.648 0.098-0.186 0.014-0.058 0.149-0.058 0.149l0.282 1.499z"></path>
<path fill="#22343d" style="fill: var(--color10, #22343d)" d="M29.398 11.101c0 0-1.761 3.058-2.052 3.605 0 0 5.196 2.242 7.305-0.457 0 0-1.2-2.385-3.055-3.293l-0.8-0.225-1.367 0.355z"></path>
<path fill="#ffc6b2" style="fill: var(--color11, #ffc6b2)" d="M32.12 5.799c0 0 0.195-0.2 0.315-0.062s-0.436 0.339-0.436 0.339l0.12-0.277z"></path>
<path fill="#775298" style="fill: var(--color7, #775298)" d="M35.814 3.263c0.002 0.006-0.076 0.038-0.225 0.071s-0.368 0.064-0.642 0.069c-0.273 0.005-0.598-0.018-0.954-0.063s-0.742-0.109-1.149-0.15c-0.406-0.041-0.796-0.048-1.142 0.004s-0.645 0.157-0.874 0.281c-0.229 0.125-0.388 0.263-0.486 0.367s-0.143 0.172-0.152 0.166c-0.006-0.003 0.024-0.078 0.113-0.195s0.245-0.271 0.478-0.411c0.233-0.139 0.542-0.258 0.902-0.318s0.763-0.056 1.176-0.014c0.413 0.042 0.801 0.111 1.152 0.16s0.669 0.082 0.937 0.087c0.536 0.014 0.861-0.075 0.866-0.054z"></path>
<path fill="#ff7b5b" style="fill: var(--color4, #ff7b5b)" d="M31.094 5.683c-0.001 0.007-0.059 0.012-0.148-0.014-0.022-0.007-0.048-0.016-0.072-0.035-0.012-0.010-0.023-0.023-0.030-0.038-0.010-0.022-0.009-0.046 0.001-0.065 0.003-0.004 0.003-0.013 0.008-0.013l0.017-0c0.011-0.001 0.024 0.002 0.037 0.004 0.024 0.004 0.031 0.003 0.048 0.004 0.029 0.001 0.060-0.002 0.090-0.008 0.125-0.023 0.208-0.102 0.246-0.167 0.039-0.066 0.043-0.115 0.053-0.114 0.007-0.001 0.022 0.052-0.010 0.131-0.017 0.039-0.045 0.083-0.091 0.122s-0.11 0.071-0.182 0.085c-0.036 0.007-0.072 0.010-0.108 0.008-0.015-0.001-0.039-0.003-0.046-0.005s-0.006-0.002-0.007-0.002-0.001 0.002-0.001 0.003c0.003 0.008 0.007 0.015 0.014 0.021 0.013 0.013 0.033 0.023 0.052 0.031 0.077 0.033 0.132 0.043 0.131 0.051z"></path>
<path fill="#fff" style="fill: var(--color3, #fff)" d="M30.642 5.754l0.711 0.265c0 0-0.625 0.408-0.711-0.265z"></path>
<path fill="#ffb2a0" style="fill: var(--color12, #ffb2a0)" d="M31.669 5.846c-0.024 0.042-0.098 0.050-0.165 0.016s-0.103-0.094-0.079-0.136c0.024-0.042 0.098-0.050 0.165-0.017s0.103 0.094 0.079 0.136z"></path>
<path fill="#ffb2a0" style="fill: var(--color12, #ffb2a0)" d="M30.896 5.45c-0.020 0.045-0.092 0.058-0.16 0.029s-0.108-0.089-0.088-0.134c0.020-0.045 0.092-0.058 0.16-0.029s0.108 0.089 0.088 0.134z"></path>
<path fill="#ffa192" style="fill: var(--color13, #ffa192)" d="M30.642 6.465c0 0 0.253 0.17 0.517 0.116 0 0-0.091 0.11-0.442 0.069 0 0 0.029-0.121-0.076-0.185z"></path>
<path fill="#22343d" style="fill: var(--color10, #22343d)" d="M31.612 5.495c0 0.036-0.029 0.065-0.065 0.065s-0.065-0.029-0.065-0.065c0-0.036 0.029-0.065 0.065-0.065s0.065 0.029 0.065 0.065z"></path>
<path fill="#22343d" style="fill: var(--color10, #22343d)" d="M31.16 5.301c0 0.036-0.029 0.065-0.065 0.065s-0.065-0.029-0.065-0.065c0-0.036 0.029-0.065 0.065-0.065s0.065 0.029 0.065 0.065z"></path>
<path fill="#775298" style="fill: var(--color7, #775298)" d="M31.735 5.3c-0.016 0.006-0.047-0.028-0.095-0.056-0.046-0.029-0.093-0.042-0.093-0.058-0.002-0.015 0.064-0.028 0.127 0.011s0.076 0.098 0.060 0.103z"></path>
<path fill="#775298" style="fill: var(--color7, #775298)" d="M30.966 5.077c-0.001-0.012 0.056-0.026 0.131-0.025 0.077 0.001 0.134 0.028 0.126 0.039s-0.061 0.006-0.129 0.005c-0.068-0.001-0.128-0.007-0.129-0.019z"></path>
<path fill="#22343d" style="fill: var(--color10, #22343d)" d="M31.224 20.83c0 0 0.277 0.966 0.563 0.887s0.071-1.427 0.071-1.427l-0.285-0.443c0 0 0.268 2.256-0.348 0.983z"></path>
<path fill="#22343d" style="fill: var(--color10, #22343d)" d="M34.844 15.502c0 0 0.206-0.204 0.456-0.238s1.144-0.13 1.275-0.023c0.131 0.107-0.725 0.468-0.725 0.468s0.298-0.172 0.174-0.236c-0.219-0.113-1.182 0.028-1.182 0.028z"></path>
<path fill="#22343d" style="fill: var(--color10, #22343d)" d="M34.457 15.778l0.293 0.513 0.16-0.077-0.39-0.505-0.062 0.069z"></path>
<path fill="#22343d" style="fill: var(--color10, #22343d)" d="M31.325 19.394l-0.683 0.609 0.202 0.167 0.573-0.617-0.093-0.159z"></path>
<path fill="#22343d" style="fill: var(--color10, #22343d)" d="M16.816 13.541c-0.197-0.457-0.272-0.966-0.566-1.376-0.422-0.589-1.234-0.881-1.577-1.514-0.146-0.269-0.191-0.576-0.193-0.877-0.003-0.596 0.188-1.23 0.679-1.609 0.565-0.435 1.412-0.429 2.074-0.137s1.167 0.823 1.596 1.378 0.806 1.149 1.306 1.649c0.371 0.37 0.811 0.69 1.091 1.125 0.766 1.193-0.022 2.703-1.375 3.133-1.188 0.378-2.625-0.817-3.036-1.773z"></path>
<path fill="#ffc6b2" style="fill: var(--color11, #ffc6b2)" d="M15.16 22.032c0.118 0.092-0.011 0.028 0.162 0.135-0.038 0.408-0.437 0.664-0.437 0.664s-0.017 0.649-0.145 0.636c-0.128-0.013-0.046-0.625-0.046-0.625s-0.262 0.639-0.373 0.598c-0.111-0.041 0.29-0.774 0.29-0.774s-0.562 0.733-0.64 0.617c-0.077-0.115 0.418-0.823 0.418-0.823s-0.611 0.607-0.68 0.508c-0.069-0.098 0.729-0.941 0.729-0.941-0.369-0.004-0.343-0.242-0.343-0.242l0.9 0.051c0 0 0.11 0.153 0.165 0.196z"></path>
<path fill="#ffc6b2" style="fill: var(--color11, #ffc6b2)" d="M23.703 9.924c0.155 0.025 0.035-0.022 0.235 0.032 0.329-0.276 0.286-0.71 0.286-0.71s0.552-0.409 0.461-0.489c-0.092-0.080-0.571 0.351-0.571 0.351s0.39-0.572 0.285-0.623c-0.105-0.051-0.489 0.674-0.489 0.674s0.283-0.836 0.134-0.819c-0.148 0.018-0.452 0.791-0.452 0.791s0.143-0.792 0.014-0.779c-0.128 0.012-0.336 1.050-0.336 1.050-0.302-0.227-0.514-0.082-0.514-0.082l0.662 0.599c0 0 0.215-0.006 0.286 0.005z"></path>
<path fill="#ffc6b2" style="fill: var(--color11, #ffc6b2)" d="M19.945 13.449c0.278-0.041 1.126 0.474 0.91 1.519-0.018 0.088-0.14 0.281-0.171 0.361-0.038 0.101 0.262 0.472 0.262 0.472l-0.774 0.232c-0.033-0.219 0.023-0.539-0.228-0.634-0.094-0.036-0.194-0.058-0.282-0.103-0.238-0.122-0.366-0.389-0.464-0.607-0.073-0.163-0.129-0.339-0.127-0.516 0.005-0.446 0.427-0.657 0.874-0.723z"></path>
<path fill="#ffc6b2" style="fill: var(--color11, #ffc6b2)" d="M21.527 16.29c0-0.374-0.129-0.516-0.558-0.516s-0.994 0.143-0.994 0.516c0 0.374 0.302 0.841 0.731 0.841s0.821-0.468 0.821-0.841z"></path>
<path fill="#ffc6b2" style="fill: var(--color11, #ffc6b2)" d="M21.139 15.631c0 0 1.293-1.262 1.551-2.498s0.698-3.242 0.698-3.242l0.491 0.128c0 0 0.233 2.741 0 3.161s-1.552 3.335-1.526 4.081l-1.215-1.63z"></path>
<path fill="#ffc6b2" style="fill: var(--color11, #ffc6b2)" d="M18.797 16.226c0 0-0.441 0.070-1.115 1.516s-2.748 4.138-2.748 4.138l0.337 0.293c0 0 2.022-1.423 2.411-2.286s0.882-1.936 1.115-1.889c0.233 0.047 1.219-1.236 0-1.773z"></path>
<path fill="#ff7b5b" style="fill: var(--color4, #ff7b5b)" d="M22.332 17.455l0.617-1.579c0 0-0.095-0.741-1.314-1.006l-0.69 0.922 1.387 1.664z"></path>
<path fill="#ff7b5b" style="fill: var(--color4, #ff7b5b)" d="M19.012 16.097c0 0-0.717 0.057-1.299 1.268 0 0 0.639 0.837 1.107 0.865 0 0 1.737-1.408 0.192-2.133z"></path>
<path fill="#ffc6b2" style="fill: var(--color11, #ffc6b2)" d="M21.010 30.315c0 0-1.030 2.012-1.151 1.639s-0.081-1.267-0.016-1.395c0.065-0.128 0.486-0.692 0.486-0.692l0.681 0.448z"></path>
<path fill="#654287" style="fill: var(--color14, #654287)" d="M21.065 20.832l0.95-0.34c0 0 2.82 4.656 2.809 5.948s-3.874 3.878-3.874 3.878l-0.651-0.501c0 0 1.831-2.515 2.468-3.167 0.319-0.326-1.963-1.926-2.309-3.465s0.607-2.353 0.607-2.353z"></path>
<path fill="#ffc6b2" style="fill: var(--color11, #ffc6b2)" d="M15.386 29.238c0 0-1.954 1.322-1.872 0.951s0.573-1.129 0.697-1.214c0.124-0.084 0.79-0.401 0.79-0.401l0.385 0.664z"></path>
<path fill="#775298" style="fill: var(--color7, #775298)" d="M18.512 22.528l2.814-1.518c0 0 0.112 5.273-0.564 6.412s-5.443 1.862-5.443 1.862l-0.321-0.709c0 0 2.941-1.631 3.845-1.95s-0.33-4.098-0.33-4.098z"></path>
<path fill="#775298" style="fill: var(--color7, #775298)" d="M20.152 19.976c0 0-2.074 0.683-1.677 2.558s1.057 2.226 1.057 2.226l1.189-1.816 1.194-2.378-1.194-0.141-0.569-0.449z"></path>
<path fill="#ff7b5b" style="fill: var(--color4, #ff7b5b)" d="M21.172 15.58c0 0 1.519 0.8 1.519 2.608 0 0-0.193 2.061-0.506 2.512 0 0-0.508 0.117-1.142 0-0.665-0.122-1.308-0.561-1.308-0.561l-0.519-2.524-0.404-1.474 0.219-0.068 1.142-0.118c0 0-0.164 1.604 1.112 0.808 0.269-0.168-0.334-1.004-0.334-1.004l0.221-0.179z"></path>
<path fill="#fff" style="fill: var(--color3, #fff)" d="M22.109 8.799l3.186 1.739 1.792-3.167-2.987-1.552-1.991 2.981z"></path>
<path fill="#fff" style="fill: var(--color3, #fff)" d="M26.502 23.984l2.266-1.32-1.872-3.076-2.071 1.264 1.677 3.132z"></path>
<path fill="#22343d" style="fill: var(--color10, #22343d)" d="M15.322 10.861c0.006-0.005 0.076 0.055 0.187 0.178s0.26 0.31 0.411 0.562c0.151 0.251 0.301 0.57 0.408 0.94 0.111 0.367 0.185 0.78 0.355 1.178 0.088 0.196 0.195 0.379 0.323 0.541 0.129 0.161 0.271 0.302 0.418 0.424 0.3 0.239 0.614 0.404 0.894 0.499 0.28 0.096 0.519 0.14 0.686 0.155 0.166 0.017 0.261 0.020 0.261 0.030 0 0.006-0.093 0.020-0.264 0.017-0.171-0.001-0.419-0.032-0.712-0.121-0.293-0.088-0.624-0.25-0.941-0.495-0.155-0.126-0.306-0.271-0.442-0.438-0.135-0.168-0.249-0.361-0.341-0.566-0.177-0.416-0.247-0.832-0.35-1.194-0.099-0.364-0.235-0.676-0.374-0.928s-0.274-0.444-0.371-0.574c-0.097-0.13-0.154-0.201-0.147-0.207z"></path>
<path fill="#22343d" style="fill: var(--color10, #22343d)" d="M19.207 8.792c0.023-0.003 0.046 0.291 0.221 0.726 0.087 0.217 0.217 0.466 0.404 0.716 0.093 0.125 0.201 0.248 0.322 0.371s0.252 0.249 0.377 0.389c0.249 0.284 0.421 0.59 0.582 0.861 0.16 0.273 0.288 0.533 0.353 0.766 0.068 0.232 0.072 0.431 0.050 0.564s-0.058 0.2-0.063 0.198c-0.011-0.003 0.007-0.074 0.013-0.203s-0.012-0.316-0.088-0.535c-0.073-0.22-0.205-0.468-0.369-0.735-0.167-0.267-0.34-0.568-0.578-0.838-0.119-0.135-0.249-0.26-0.371-0.386s-0.233-0.257-0.327-0.388c-0.188-0.262-0.313-0.524-0.392-0.75-0.080-0.226-0.115-0.417-0.131-0.548s-0.012-0.205-0.004-0.206z"></path>
<path fill="#ff7b5b" style="fill: var(--color4, #ff7b5b)" d="M20.18 14.604c-0.001-0.009 0.053-0.016 0.104-0.071 0.012-0.013 0.024-0.031 0.023-0.042s-0.009-0.031-0.024-0.043c-0.016-0.013-0.033-0.019-0.057-0.017s-0.053 0.012-0.091 0.018c-0.083 0.010-0.149-0.033-0.191-0.067-0.044-0.036-0.078-0.073-0.103-0.106-0.050-0.067-0.065-0.115-0.058-0.118 0.009-0.004 0.039 0.036 0.095 0.091 0.028 0.028 0.063 0.060 0.105 0.090s0.092 0.057 0.142 0.050c0.027-0.003 0.058-0.014 0.096-0.017 0.039-0.003 0.081 0.013 0.105 0.037 0.025 0.025 0.039 0.053 0.036 0.088-0.007 0.035-0.028 0.051-0.045 0.067-0.073 0.058-0.141 0.049-0.138 0.041z"></path>
<path fill="#fff" style="fill: var(--color3, #fff)" d="M20.558 14.61l-0.582 0.194c0 0 0.494 0.395 0.582-0.194z"></path>
<path fill="#ffb2a0" style="fill: var(--color12, #ffb2a0)" d="M19.904 14.583c0.024 0.042-0.011 0.103-0.079 0.136s-0.141 0.026-0.165-0.017c-0.024-0.042 0.011-0.103 0.079-0.136s0.141-0.026 0.165 0.017z"></path>
<path fill="#ffb2a0" style="fill: var(--color12, #ffb2a0)" d="M20.617 14.268c0.019 0.046-0.021 0.105-0.090 0.133s-0.14 0.014-0.159-0.032c-0.019-0.046 0.021-0.105 0.090-0.133s0.14-0.014 0.159 0.032z"></path>
<path fill="#ffa192" style="fill: var(--color13, #ffa192)" d="M19.976 15.406c0 0 0.199 0.035 0.453-0.020 0 0-0.125 0.105-0.329 0.129 0 0-0.046-0.073-0.123-0.11z"></path>
<path fill="#22343d" style="fill: var(--color10, #22343d)" d="M20.212 14.108c0.027 0.023 0.031 0.064 0.008 0.091s-0.064 0.031-0.091 0.008c-0.027-0.023-0.031-0.064-0.008-0.091s0.064-0.031 0.091-0.008z"></path>
<path fill="#22343d" style="fill: var(--color10, #22343d)" d="M19.759 14.367c0.027 0.023 0.031 0.064 0.008 0.091s-0.064 0.031-0.091 0.008c-0.027-0.023-0.031-0.064-0.008-0.091s0.064-0.031 0.091-0.008z"></path>
<path fill="#22343d" style="fill: var(--color10, #22343d)" d="M20.234 13.921c-0.006 0.011-0.064 0.011-0.127 0.021-0.064 0.010-0.112 0.027-0.128 0.019-0.016-0.006 0.021-0.045 0.108-0.058s0.154 0.008 0.147 0.018z"></path>
<path fill="#22343d" style="fill: var(--color10, #22343d)" d="M19.463 14.285c-0.014-0.010 0.008-0.067 0.061-0.125 0.053-0.059 0.121-0.078 0.128-0.062s-0.034 0.053-0.081 0.105c-0.047 0.051-0.093 0.093-0.108 0.082z"></path>
<path fill="#ffc6b2" style="fill: var(--color11, #ffc6b2)" d="M19.255 14.744c0 0-0.204-0.147-0.302-0.014s0.441 0.203 0.441 0.203l-0.139-0.189z"></path>
<path fill="#775298" style="fill: var(--color7, #775298)" d="M14.545 28.832c0 0-0.284 0.113-0.359 0.181s-0.755 1.145-0.668 1.28c0.087 0.136 0.769-0.326 0.769-0.326s-0.571 0.099 0.258-1.136z"></path>
<path fill="#775298" style="fill: var(--color7, #775298)" d="M19.99 30.255c0 0-0.204 0.203-0.236 0.297s-0.088 1.357 0.059 1.442c0.147 0.085 0.55-0.612 0.55-0.612s-0.481 0.347-0.373-1.123z"></path>
</symbol>
</defs>
</svg>
